<svg id="Layer_1" data-name="Layer 1" xmlns="http://www.w3.org/2000/svg" viewBox="0 0 1424.21 223"><defs><style>.cls-1,.cls-2{fill:#fff;stroke:#fff;stroke-miterlimit:10;}.cls-2{stroke-width:2px;}</style></defs><path class="cls-1" d="M417,455.33a90.1,90.1,0,0,0-153.09,57.45c-.17,2.23-.26,4.5-.26,6.77V638.38a13,13,0,0,0,26,0V519.55A64.19,64.19,0,1,1,399,565.16a13,13,0,0,0,4.13,21.27,12.75,12.75,0,0,0,14.07-2.71A90,90,0,0,0,417,455.33Z" transform="translate(-263.18 -428.87)"/><path class="cls-1" d="M386.68,513.07V632.89a8.27,8.27,0,0,1-.16,1.66A8.78,8.78,0,0,1,375,641.2a156.94,156.94,0,0,1-72.53-51.71,8.81,8.81,0,0,1-.34-10.36c1.47-2.17,3-4.38,4.61-6.63,3.49-4.88,7.34-9.93,11.56-15.09,4.42-5.39,9.25-10.91,14.53-16.46a294.72,294.72,0,0,1,39.89-35,8.77,8.77,0,0,1,14,7.12Z" transform="translate(-263.18 -428.87)"/><path class="cls-1" d="M386.68,632.89v1.66h-.16A8.27,8.27,0,0,0,386.68,632.89Z" transform="translate(-263.18 -428.87)"/><path class="cls-2" d="M550.81,481.07a46.1,46.1,0,0,1,18.48,3.73,40.94,40.94,0,0,1,14.91,11.07,52.55,52.55,0,0,1,9.87,18.52,86.05,86.05,0,0,1,3.57,26.1q0,15.16-3.68,26.46a50.07,50.07,0,0,1-10.39,18.65,43.16,43.16,0,0,1-16.07,11.06,55.24,55.24,0,0,1-20.68,3.73,59.39,59.39,0,0,1-20.06-3.12,54.17,54.17,0,0,1-14.17-7.22,23,23,0,0,1-6.3-6.74,17.55,17.55,0,0,1-1.89-8.66V440.9q1.47-.48,4.2-1.2a22.55,22.55,0,0,1,5.88-.73c4.06,0,7,.89,8.92,2.65s2.84,4.73,2.84,8.9v38A60,60,0,0,1,537,483.36,39.34,39.34,0,0,1,550.81,481.07Zm-3.57,20.21a27.19,27.19,0,0,0-12,2.53,38.71,38.71,0,0,0-9,5.89v64a28.21,28.21,0,0,0,8.19,4.33A35.14,35.14,0,0,0,546.61,580a25.72,25.72,0,0,0,20.79-9.63q8-9.62,8-29.83,0-20.44-7.88-29.83A25.25,25.25,0,0,0,547.24,501.28Z" transform="translate(-263.18 -428.87)"/><path class="cls-2" d="M620.11,449.8a15.1,15.1,0,0,1,3.78-10.47,12.42,12.42,0,0,1,9.66-4.21,11.8,11.8,0,0,1,9.45,4.21,17.12,17.12,0,0,1,0,20.93,11.77,11.77,0,0,1-9.45,4.21,12.39,12.39,0,0,1-9.66-4.21A15.06,15.06,0,0,1,620.11,449.8Zm24.36,146.74a18.94,18.94,0,0,1-4.1,1.33,26.94,26.94,0,0,1-6,.6q-6.09,0-9-2.65t-2.94-8.9V485.16l4.3-1.2a22.71,22.71,0,0,1,6-.72q6.09,0,8.92,2.64t2.84,9.15Z" transform="translate(-263.18 -428.87)"/><path class="cls-2" d="M722.8,501.52a30,30,0,0,0-12.39,2.53,26.2,26.2,0,0,0-9.77,7.57A38.69,38.69,0,0,0,694.13,524a54.32,54.32,0,0,0-2.41,17q0,19,8.61,29t22.47,10a34.94,34.94,0,0,0,13.65-2.41,41.76,41.76,0,0,0,9.87-5.77,16.08,16.08,0,0,1,4.41,4.57,11.87,11.87,0,0,1,1.68,6.49q0,7.47-8.51,12.51t-22.36,5a59.46,59.46,0,0,1-21.11-3.6A43,43,0,0,1,684,585.72a52.09,52.09,0,0,1-10.82-18.64q-3.89-11.19-3.88-26.11t4.09-26.22A53.48,53.48,0,0,1,684.47,496,45.33,45.33,0,0,1,701,484.8a54,54,0,0,1,19.95-3.73,49.41,49.41,0,0,1,12.49,1.45,33.29,33.29,0,0,1,9.56,4,20.58,20.58,0,0,1,6.19,5.77,12,12,0,0,1,2.21,6.85,12.18,12.18,0,0,1-1.58,6.14,11.58,11.58,0,0,1-3.88,4.21,57.81,57.81,0,0,0-9.77-5.53A32.42,32.42,0,0,0,722.8,501.52Z" transform="translate(-263.18 -428.87)"/><path class="cls-2" d="M774,449.8a15.1,15.1,0,0,1,3.78-10.47,12.42,12.42,0,0,1,9.66-4.21,11.82,11.82,0,0,1,9.45,4.21,17.12,17.12,0,0,1,0,20.93,11.79,11.79,0,0,1-9.45,4.21,12.39,12.39,0,0,1-9.66-4.21A15.06,15.06,0,0,1,774,449.8ZM798.4,596.54a18.94,18.94,0,0,1-4.1,1.33,27,27,0,0,1-6,.6c-4.07,0-7.07-.88-9-2.65s-2.94-4.73-2.94-8.9V485.16c1.11-.32,2.55-.72,4.3-1.2a22.71,22.71,0,0,1,6-.72c4.05,0,7,.88,8.92,2.64s2.84,4.82,2.84,9.15Z" transform="translate(-263.18 -428.87)"/><path class="cls-2" d="M854.89,576.34c2.94,2.4,7.06,3.61,12.39,3.61a26.07,26.07,0,0,0,7.56-1.21,33.76,33.76,0,0,0,6.93-2.88,25,25,0,0,1,2.62,4.33,13.22,13.22,0,0,1,1.16,5.77q0,6.25-5.57,10.34t-16.9,4.09q-15.75,0-25.1-8.06t-9.34-26.58V453.41c1-.32,2.37-.72,4.2-1.21a22.94,22.94,0,0,1,5.88-.72c4,0,7,.89,8.92,2.65s2.84,4.73,2.84,8.9v23.82H883a18.25,18.25,0,0,1,1.57,4.09,20.51,20.51,0,0,1,.74,5.53q0,10.35-7.77,10.34H850.48v57.26Q850.48,572.73,854.89,576.34Z" transform="translate(-263.18 -428.87)"/><path class="cls-2" d="M929.86,596.54a19.12,19.12,0,0,1-4.1,1.33,25.88,25.88,0,0,1-5.77.6q-6.11,0-9-2.65c-2-1.76-2.94-4.73-2.94-8.9V508a19.69,19.69,0,0,1,2.1-9.75,22.87,22.87,0,0,1,6.72-7.09A53.62,53.62,0,0,1,932.38,484a70.74,70.74,0,0,1,20.79-2.89q18.47,0,18.48,12a17.27,17.27,0,0,1-.84,5.41,28.76,28.76,0,0,1-1.89,4.45c-1.41-.32-3.15-.64-5.25-1a44.74,44.74,0,0,0-6.72-.48,53.75,53.75,0,0,0-15.33,2.05,44.93,44.93,0,0,0-11.76,5.17Z" transform="translate(-263.18 -428.87)"/><path class="cls-2" d="M1081.69,540.73a80.46,80.46,0,0,1-3.57,24.78,56,56,0,0,1-10,18.77,43.49,43.49,0,0,1-15.64,11.9,52.41,52.41,0,0,1-41.16,0,43.44,43.44,0,0,1-15.65-11.9,55.61,55.61,0,0,1-10-18.77,87.79,87.79,0,0,1,0-49.56,54.53,54.53,0,0,1,10.08-18.76,44.46,44.46,0,0,1,15.75-11.91,51.38,51.38,0,0,1,40.74,0,44,44,0,0,1,15.75,12,56.58,56.58,0,0,1,10.08,18.76A79.35,79.35,0,0,1,1081.69,540.73Zm-49.77-39.45a23.23,23.23,0,0,0-20,10.34q-7.37,10.35-7.35,29.11t7.14,29q7.13,10.23,20.16,10.23t20.16-10.23q7.13-10.22,7.14-29,0-18.51-7.25-29A23.08,23.08,0,0,0,1031.92,501.28Z" transform="translate(-263.18 -428.87)"/><path class="cls-1" d="M1149.94,482.76a45.43,45.43,0,0,1,18.06,3.6,39.86,39.86,0,0,1,14.59,10.83,51.19,51.19,0,0,1,9.66,18.28q3.46,11.07,3.47,26,0,15.16-3.57,26.23a50.6,50.6,0,0,1-10,18.28,39.26,39.26,0,0,1-15.43,10.7,54.28,54.28,0,0,1-19.74,3.49,58.65,58.65,0,0,1-18.59-2.76,54.18,54.18,0,0,1-13.54-6.38,20,20,0,0,1-6.09-6.13,16.43,16.43,0,0,1-1.68-8.06V441.14a22.38,22.38,0,0,1,3.25-1.08,18,18,0,0,1,4.73-.61q8.82,0,8.82,8.66v43.07a49.22,49.22,0,0,1,11-5.9A40.88,40.88,0,0,1,1149.94,482.76Zm-2.52,15.87a29.33,29.33,0,0,0-13.34,3,40.4,40.4,0,0,0-10.18,7.1v68.08a34.16,34.16,0,0,0,9.13,5,37.35,37.35,0,0,0,14,2.41,32,32,0,0,0,12.91-2.53,25.93,25.93,0,0,0,10-7.82,38.43,38.43,0,0,0,6.51-13.35,70.31,70.31,0,0,0,2.31-19.13,71.62,71.62,0,0,0-2.31-19.24,37.16,37.16,0,0,0-6.51-13.35,26.38,26.38,0,0,0-10-7.7A30.91,30.91,0,0,0,1147.42,498.63Z" transform="translate(-263.18 -428.87)"/><path class="cls-1" d="M1220.5,450.76a12.53,12.53,0,0,1,3-8.54,10,10,0,0,1,7.88-3.49,9.67,9.67,0,0,1,7.76,3.49,13.87,13.87,0,0,1,0,17.08,9.64,9.64,0,0,1-7.76,3.49,10,10,0,0,1-7.88-3.49A12.51,12.51,0,0,1,1220.5,450.76Zm19.31,145.78a23.89,23.89,0,0,1-3.14,1.09,16.9,16.9,0,0,1-4.63.6q-9,0-9-8.66V486.36a24.43,24.43,0,0,1,3.26-1.08,17.92,17.92,0,0,1,4.73-.6q8.82,0,8.81,8.9Z" transform="translate(-263.18 -428.87)"/><path class="cls-1" d="M1337.46,585.48a29.65,29.65,0,0,1-9.76,5.77,40.79,40.79,0,0,1-14.81,2.41,50,50,0,0,1-17.43-3,36.89,36.89,0,0,1-14.38-9.62,47.6,47.6,0,0,1-9.87-17.2q-3.68-10.59-3.68-25.74A73.77,73.77,0,0,1,1271.1,514a48.78,48.78,0,0,1,10-17.32,40.81,40.81,0,0,1,15.22-10.47,52.78,52.78,0,0,1,19.53-3.48,54.66,54.66,0,0,1,17.75,2.76,48.87,48.87,0,0,1,13.54,6.86,22.46,22.46,0,0,1,5.15,5.41,13,13,0,0,1,2,7.34v96.71q0,12-3.46,20.32a34.47,34.47,0,0,1-9.66,13.48,39.44,39.44,0,0,1-14.6,7.57,65.11,65.11,0,0,1-18.06,2.41,56.82,56.82,0,0,1-18.16-2.53q-7.46-2.52-10.19-4.45-6.3-4.1-6.3-10.34a10.82,10.82,0,0,1,1.37-5.65,9.5,9.5,0,0,1,3.46-3.49,44.28,44.28,0,0,0,12.39,7.09,45.72,45.72,0,0,0,17.43,3.25q14.07,0,21.53-6.85t7.45-22Zm-22.68-7.7q8.4,0,13.76-3a36.23,36.23,0,0,0,8.92-6.85V505.37a37.31,37.31,0,0,0-8.92-4.69,35.69,35.69,0,0,0-12.71-2.05q-14.28,0-22.78,9.87t-8.51,29.35a63.73,63.73,0,0,0,2.31,18.4,34.34,34.34,0,0,0,6.41,12.39,24,24,0,0,0,9.66,7A32.47,32.47,0,0,0,1314.78,577.78Z" transform="translate(-263.18 -428.87)"/><path class="cls-1" d="M1450.23,585.48a29.75,29.75,0,0,1-9.76,5.77,40.79,40.79,0,0,1-14.81,2.41,50,50,0,0,1-17.43-3,36.82,36.82,0,0,1-14.38-9.62,47.46,47.46,0,0,1-9.87-17.2q-3.68-10.59-3.68-25.74a73.77,73.77,0,0,1,3.57-24.06,48.63,48.63,0,0,1,10-17.32,40.81,40.81,0,0,1,15.22-10.47,52.78,52.78,0,0,1,19.53-3.48,54.66,54.66,0,0,1,17.75,2.76,49,49,0,0,1,13.54,6.86,22.46,22.46,0,0,1,5.15,5.41,13,13,0,0,1,2,7.34v96.71q0,12-3.46,20.32a34.57,34.57,0,0,1-9.66,13.48,39.44,39.44,0,0,1-14.6,7.57,65.11,65.11,0,0,1-18.06,2.41,56.77,56.77,0,0,1-18.16-2.53q-7.46-2.52-10.19-4.45-6.3-4.1-6.3-10.34a10.73,10.73,0,0,1,1.37-5.65,9.5,9.5,0,0,1,3.46-3.49,44.28,44.28,0,0,0,12.39,7.09,45.72,45.72,0,0,0,17.43,3.25q14.07,0,21.53-6.85t7.45-22Zm-22.68-7.7q8.4,0,13.76-3a36.23,36.23,0,0,0,8.92-6.85V505.37a37.31,37.31,0,0,0-8.92-4.69,35.69,35.69,0,0,0-12.71-2.05q-14.28,0-22.78,9.87t-8.51,29.35a63.73,63.73,0,0,0,2.31,18.4,34.34,34.34,0,0,0,6.41,12.39,24,24,0,0,0,9.66,7A32.44,32.44,0,0,0,1427.55,577.78Z" transform="translate(-263.18 -428.87)"/><path class="cls-1" d="M1532.55,482.76q18.27,0,29,9.38t10.71,29.59v57q0,5.29-1.79,8.06a18.43,18.43,0,0,1-5.35,5.17,50.88,50.88,0,0,1-13.34,5.9,65.4,65.4,0,0,1-19,2.52q-19.74,0-30.56-8.9t-10.81-25.74q0-15.87,9-23.93t25.41-10l29.82-3.37v-6.73q0-12-6.3-17.56t-17-5.54a47.36,47.36,0,0,0-16.59,2.89,85.87,85.87,0,0,0-13.86,6.5,22.19,22.19,0,0,1-3.05-3.85,8.85,8.85,0,0,1-1.36-4.81,9.68,9.68,0,0,1,1.47-5.54,14.89,14.89,0,0,1,4.62-4.09,47.61,47.61,0,0,1,13-5.17A67,67,0,0,1,1532.55,482.76Zm.21,101.76a44.08,44.08,0,0,0,14.59-2,31.64,31.64,0,0,0,8.3-4V543.62l-26,3.13q-10.92,1.2-16.17,5.65t-5.25,13.11q0,9.15,6.09,14.07T1532.76,584.52Z" transform="translate(-263.18 -428.87)"/><path class="cls-1" d="M1663.48,504.89q-6.62-6.25-17.74-6.26a42.94,42.94,0,0,0-14.91,2.41,52,52,0,0,0-11.13,5.53v90a23.61,23.61,0,0,1-3.15,1.09,16.78,16.78,0,0,1-4.62.6q-9,0-9-8.66v-82a17.16,17.16,0,0,1,1.78-8.3,20.27,20.27,0,0,1,6.2-6.37,59,59,0,0,1,14.49-7,62.15,62.15,0,0,1,20.37-3.12q19.11,0,30.13,9.86t11,31v72.89a22.8,22.8,0,0,1-3.26,1.09,17.08,17.08,0,0,1-4.51.6q-9,0-9-8.66v-65Q1670.1,511.15,1663.48,504.89Z" transform="translate(-263.18 -428.87)"/></svg>